HIERARCHY
ROOT Hips
{
    OFFSET   0.000000   0.000000   0.000000
    CHANNELS 6 Xposition Yposition Zposition Zrotation Xrotation Yrotation
    JOINT Chest
    {
        OFFSET   0.000000   8.007230   0.000000
        CHANNELS 3 Zrotation Xrotation Yrotation
        JOINT Chest2
        {
            OFFSET   0.000000  22.077100   0.000000
            CHANNELS 3 Zrotation Xrotation Yrotation
            JOINT Neck
            {
                OFFSET   0.000000  23.255100   0.000000
                CHANNELS 3 Zrotation Xrotation Yrotation
                JOINT Head
                {
                    OFFSET   0.000000  14.370100   1.956600
                    CHANNELS 3 Zrotation Xrotation Yrotation
                    End Site
                    {
                        OFFSET   0.000000  19.566000   0.000000
                    }
                }
            }
            JOINT LeftCollar
            {
                OFFSET   3.911900  19.017000  -0.467063
                CHANNELS 3 Zrotation Xrotation Yrotation
                JOINT LeftShoulder
                {
                    OFFSET  10.383700   0.000000   0.000000
                    CHANNELS 3 Zrotation Xrotation Yrotation
                    JOINT LeftElbow
                    {
                        OFFSET  26.662100   0.001193   0.000980
                        CHANNELS 3 Zrotation Xrotation Yrotation
                        JOINT LeftWrist
                        {
                            OFFSET  28.869000  -0.000059  -0.000082
                            CHANNELS 3 Zrotation Xrotation Yrotation
                            JOINT LeftFinger0
                            {
                                OFFSET   2.044650  -2.323450   3.252850
                                CHANNELS 3 Zrotation Xrotation Yrotation
                                JOINT LeftFinger01
                                {
                                    OFFSET   3.088130   0.000000   0.000000
                                    CHANNELS 3 Zrotation Xrotation Yrotation
                                    JOINT LeftFinger02
                                    {
                                        OFFSET   2.639460   0.000000   0.000000
                                        CHANNELS 3 Zrotation Xrotation Yrotation
                                        End Site
                                        {
                                            OFFSET   2.582190   0.000000   0.000000
                                        }
                                    }
                                }
                            }
                            JOINT LeftFinger1
                            {
                                OFFSET   8.364480   0.000000   3.252850
                                CHANNELS 3 Zrotation Xrotation Yrotation
                                JOINT LeftFinger11
                                {
                                    OFFSET   4.646930   0.000000   0.000000
                                    CHANNELS 3 Zrotation Xrotation Yrotation
                                    JOINT LeftFinger12
                                    {
                                        OFFSET   2.323470   0.000000   0.000000
                                        CHANNELS 3 Zrotation Xrotation Yrotation
                                        End Site
                                        {
                                            OFFSET   2.273050   0.000000   0.000000
                                        }
                                    }
                                }
                            }
                            JOINT LeftFinger2
                            {
                                OFFSET   8.364490   0.000016   1.078090
                                CHANNELS 3 Zrotation Xrotation Yrotation
                                JOINT LeftFinger21
                                {
                                    OFFSET   5.111610   0.000000   0.000000
                                    CHANNELS 3 Zrotation Xrotation Yrotation
                                    JOINT LeftFinger22
                                    {
                                        OFFSET   2.788150   0.000016   0.000000
                                        CHANNELS 3 Zrotation Xrotation Yrotation
                                        End Site
                                        {
                                            OFFSET   2.727660   0.000000   0.000000
                                        }
                                    }
                                }
                            }
                            JOINT LeftFinger3
                            {
                                OFFSET   7.899780   0.000015  -1.078090
                                CHANNELS 3 Zrotation Xrotation Yrotation
                                JOINT LeftFinger31
                                {
                                    OFFSET   4.646930   0.000000   0.000000
                                    CHANNELS 3 Zrotation Xrotation Yrotation
                                    JOINT LeftFinger32
                                    {
                                        OFFSET   2.323470   0.000000   0.000000
                                        CHANNELS 3 Zrotation Xrotation Yrotation
                                        End Site
                                        {
                                            OFFSET   2.273050   0.000000   0.000000
                                        }
                                    }
                                }
                            }
                            JOINT LeftFinger4
                            {
                                OFFSET   7.435090   0.000000  -3.252850
                                CHANNELS 3 Zrotation Xrotation Yrotation
                                JOINT LeftFinger41
                                {
                                    OFFSET   3.717550   0.000000   0.000000
                                    CHANNELS 3 Zrotation Xrotation Yrotation
                                    JOINT LeftFinger42
                                    {
                                        OFFSET   1.858770   0.000000   0.000000
                                        CHANNELS 3 Zrotation Xrotation Yrotation
                                        End Site
                                        {
                                            OFFSET   1.818440   0.000000   0.000000
                                        }
                                    }
                                }
                            }
                        }
                    }
                }
            }
            JOINT RightCollar
            {
                OFFSET  -3.911910  19.017000  -0.467062
                CHANNELS 3 Zrotation Xrotation Yrotation
                JOINT RightShoulder
                {
                    OFFSET -10.383700   0.000014   0.000000
                    CHANNELS 3 Zrotation Xrotation Yrotation
                    JOINT RightElbow
                    {
                        OFFSET -26.662100   0.001225   0.001091
                        CHANNELS 3 Zrotation Xrotation Yrotation
                        JOINT RightWrist
                        {
                            OFFSET -28.869000  -0.000020  -0.000085
                            CHANNELS 3 Zrotation Xrotation Yrotation
                            JOINT RightFinger0
                            {
                                OFFSET  -2.044650  -2.323490   3.252850
                                CHANNELS 3 Zrotation Xrotation Yrotation
                                JOINT RightFinger01
                                {
                                    OFFSET  -3.088130   0.000000   0.000000
                                    CHANNELS 3 Zrotation Xrotation Yrotation
                                    JOINT RightFinger02
                                    {
                                        OFFSET  -2.639460   0.000000   0.000000
                                        CHANNELS 3 Zrotation Xrotation Yrotation
                                        End Site
                                        {
                                            OFFSET  -2.582190   0.000000   0.000000
                                        }
                                    }
                                }
                            }
                            JOINT RightFinger1
                            {
                                OFFSET  -8.364480   0.000000   3.252850
                                CHANNELS 3 Zrotation Xrotation Yrotation
                                JOINT RightFinger11
                                {
                                    OFFSET  -4.646930   0.000000   0.000000
                                    CHANNELS 3 Zrotation Xrotation Yrotation
                                    JOINT RightFinger12
                                    {
                                        OFFSET  -2.323470   0.000000   0.000000
                                        CHANNELS 3 Zrotation Xrotation Yrotation
                                        End Site
                                        {
                                            OFFSET  -2.273050   0.000000   0.000000
                                        }
                                    }
                                }
                            }
                            JOINT RightFinger2
                            {
                                OFFSET  -8.364480   0.000000   1.078090
                                CHANNELS 3 Zrotation Xrotation Yrotation
                                JOINT RightFinger21
                                {
                                    OFFSET  -5.111620   0.000000   0.000000
                                    CHANNELS 3 Zrotation Xrotation Yrotation
                                    JOINT RightFinger22
                                    {
                                        OFFSET  -2.788160   0.000000   0.000000
                                        CHANNELS 3 Zrotation Xrotation Yrotation
                                        End Site
                                        {
                                            OFFSET  -2.727660   0.000000   0.000000
                                        }
                                    }
                                }
                            }
                            JOINT RightFinger3
                            {
                                OFFSET  -7.899780   0.000000  -1.078090
                                CHANNELS 3 Zrotation Xrotation Yrotation
                                JOINT RightFinger31
                                {
                                    OFFSET  -4.646930   0.000000   0.000000
                                    CHANNELS 3 Zrotation Xrotation Yrotation
                                    JOINT RightFinger32
                                    {
                                        OFFSET  -2.323470   0.000000   0.000000
                                        CHANNELS 3 Zrotation Xrotation Yrotation
                                        End Site
                                        {
                                            OFFSET  -2.273050   0.000000   0.000000
                                        }
                                    }
                                }
                            }
                            JOINT RightFinger4
                            {
                                OFFSET  -7.435090   0.000000  -3.252850
                                CHANNELS 3 Zrotation Xrotation Yrotation
                                JOINT RightFinger41
                                {
                                    OFFSET  -3.717550   0.000000   0.000000
                                    CHANNELS 3 Zrotation Xrotation Yrotation
                                    JOINT RightFinger42
                                    {
                                        OFFSET  -1.858760   0.000000   0.000000
                                        CHANNELS 3 Zrotation Xrotation Yrotation
                                        End Site
                                        {
                                            OFFSET  -1.818440   0.000000   0.000000
                                        }
                                    }
                                }
                            }
                        }
                    }
                }
            }
        }
    }
    JOINT LeftHip
    {
        OFFSET   9.783030   0.000000   0.000000
        CHANNELS 3 Zrotation Xrotation Yrotation
        JOINT LeftKnee
        {
            OFFSET   0.000063 -41.789100   0.000608
            CHANNELS 3 Zrotation Xrotation Yrotation
            JOINT LeftAnkle
            {
                OFFSET   0.000048 -41.133200  -0.000184
                CHANNELS 3 Zrotation Xrotation Yrotation
                JOINT LeftToe
                {
                    OFFSET   0.000000  -6.358960  14.674500
                    CHANNELS 3 Zrotation Xrotation Yrotation
                    End Site
                    {
                        OFFSET   0.000000   0.000000   3.913200
                    }
                }
            }
        }
    }
    JOINT RightHip
    {
        OFFSET  -9.783030   0.000000   0.000000
        CHANNELS 3 Zrotation Xrotation Yrotation
        JOINT RightKnee
        {
            OFFSET   0.000071 -41.789100   0.001239
            CHANNELS 3 Zrotation Xrotation Yrotation
            JOINT RightAnkle
            {
                OFFSET   0.000037 -41.133200  -0.000166
                CHANNELS 3 Zrotation Xrotation Yrotation
                JOINT RightToe
                {
                    OFFSET   0.000000  -6.358960  14.674500
                    CHANNELS 3 Zrotation Xrotation Yrotation
                    End Site
                    {
                        OFFSET   0.000000   0.000000   3.913200
                    }
                }
            }
        }
    }
}
MOTION
Frames: 6
Frame Time:   0.016667
  0.547157  89.481900   1.945530  -5.349450 -17.025200  -6.353810   0.739321  12.021600   0.433470   1.432290  24.047800   0.729068   3.830890  -3.242230   0.216984   6.349410  -6.486590   4.010150  -6.405750  -7.431080   1.488040 -67.252000   9.167810 -13.387300  18.516700 -24.886900 -88.093200  91.221800 -31.425500  16.234800  43.348900  36.998300 -78.640200  18.847000  -0.006350   0.002255  14.423500   0.001745   0.001792 -21.155900   5.304440 -13.476400 -17.823900  -0.003464  -0.000376 -12.476800  -0.002209   0.000252 -28.432800  -1.132040   2.093560 -35.546300  -0.001704   0.003065 -23.673900  -0.001017   0.003251 -28.477200  -1.133780   2.092290 -36.081800   0.001668   0.002272 -24.030500   0.000477  -0.001977 -34.554500  -4.363340   6.308760 -52.192300   0.001691   0.000228 -34.760100   0.000095  -0.001850  14.569700  -4.908240  11.965300  61.295300   3.108100   8.057500 -34.740100 -42.195600  70.601200 -80.351600 -38.621400 -10.528800 -63.682600  47.313600  96.141300 -15.261000  -0.003738  -0.009100 -12.630500   0.000570  -0.004254  20.333900   7.201740  18.707400  17.602100  -0.008007  -0.000779  12.321500  -0.002865   0.010141  27.132100   1.537890   3.001400  27.696700  -0.005775  -0.000541  18.446100  -0.004688  -0.002141  27.620600  -2.759280  -5.258040  30.492000  -0.009959  -0.000630  20.307700  -0.002477  -0.001817  35.634000  -3.466930  -4.822180  53.674200   0.006901  -0.000467  35.747000   0.000748  -0.000610   2.374020  20.759100   4.960150   0.950580   0.086126   4.036530  -0.010681  -4.510840   2.727920  -0.000000   0.000000   0.000000   6.304940  18.400900  -5.284040  -2.648040   3.599170  -6.247250   0.022891  -5.964840   0.291006   0.000000   0.000000   0.000000
  0.539974  89.483200   1.982750  -5.321540 -16.955200  -6.317620   0.742434  11.921700   0.390391   1.448480  23.847600   0.640296   3.782470  -3.209300   0.212075   6.268020  -6.422920   4.142990  -6.530680  -7.353410   1.373190 -66.909300   9.021990 -11.950700  18.304600 -24.699100 -88.913400  91.033700 -31.228300  15.438800  43.578800  37.158100 -78.783700  18.890900  -0.006617   0.002357  14.445400   0.001771   0.001718 -20.499900   5.249520 -13.751900 -17.290400  -0.003450  -0.000455 -12.103300  -0.002207   0.000124 -28.356900  -0.981321   1.817300 -34.683700  -0.001756   0.003166 -23.099400  -0.001063   0.003256 -28.421100  -0.983377   1.815750 -35.430100   0.001708   0.002115 -23.596500   0.000467  -0.001985 -34.315800  -4.263350   6.212410 -51.818300   0.001674   0.000195 -34.511000   0.000091  -0.001859  14.729400  -4.852980  12.117900  61.019200   3.500110   6.417000 -34.062600 -41.904100  71.969900 -79.933100 -38.230300  -8.662950 -64.503700  47.545200  96.931900 -15.604900  -0.012806  -0.023360 -12.802400   0.000579  -0.012755  20.226000   7.063710  18.463800  17.488700  -0.008132  -0.000777  12.242100  -0.002937   0.010412  27.042700   1.487630   2.916860  27.318100  -0.005876  -0.000607  18.193900  -0.004771  -0.002073  27.579100  -2.747340  -5.243010  30.259100  -0.010306  -0.000788  20.152600  -0.002563  -0.001808  35.532400  -3.447010  -4.812690  53.516000   0.006869  -0.000535  35.641700   0.000670  -0.000607   2.372480  20.671200   4.951800   0.939860   0.167068   4.043030  -0.008141  -4.581860   2.692700  -0.000000   0.000000   0.000000   6.299690  18.403600  -5.233790  -2.636890   3.524450  -6.365110   0.016338  -5.965910   0.326458   0.000000   0.000000  -0.000000
  0.529800  89.484300   2.014080  -5.302170 -16.884100  -6.313990   0.742267  11.821800   0.357258   1.455600  23.647400   0.573595   3.741370  -3.169160   0.207156   6.199580  -6.344220   4.254310  -6.665740  -7.294040   1.238220 -66.634100   9.079540 -10.528800  18.217600 -24.712200 -89.590400  90.899200 -31.067400  14.703600  43.677800  37.052200 -78.569300  18.949000  -0.006872   0.002459  14.474400   0.001805   0.001642 -19.966700   5.082350 -13.658100 -16.832300  -0.003439  -0.000539 -11.782600  -0.002197  -0.000004 -28.242000  -1.009480   1.877010 -33.736300  -0.001797   0.003223 -22.468400  -0.001111   0.003154 -28.331500  -1.012350   1.874870 -34.614900   0.001754   0.001954 -23.053600   0.000471  -0.001994 -33.939400  -4.361940   6.432270 -51.270500   0.001649   0.000106 -34.146200   0.000073  -0.001852  14.905000  -4.815800  12.268900  60.797400   3.925980   4.811330 -33.375500 -41.570900  73.397300 -79.563400 -37.807700  -6.873810 -64.797400  47.696600  97.362500 -15.594400  -0.017563  -0.031021 -12.797100   0.000588  -0.017067  20.208100   6.903600  18.093700  17.435700  -0.008250  -0.000773  12.205000  -0.003001   0.010652  26.984500   1.349310   2.650100  27.085600  -0.005973  -0.000687  18.039000  -0.004851  -0.002010  27.554800  -2.779580  -5.311700  30.142100  -0.010643  -0.000940  20.074600  -0.002644  -0.001806  35.512100  -3.489090  -4.875700  53.487700   0.006843  -0.000607  35.622800   0.000597  -0.000599   2.362140  20.662700   4.947890   0.927362   0.085272   4.064330   0.000487  -4.569130   2.666240   0.000000   0.000000  -0.000000   6.280460  18.386300  -5.178590  -2.617650   3.469870  -6.463330   0.010500  -5.966940   0.366785  -0.000000   0.000000   0.000000
  0.523068  89.485200   2.040830  -5.284130 -16.816500  -6.311550   0.739313  11.727300   0.341533   1.452740  23.458000   0.542236   3.705710  -3.128800   0.202567   6.138180  -6.264940   4.314020  -6.792820  -7.237300   1.113990 -66.471100   9.130800  -9.142660  18.135300 -24.707800 -90.277500  90.818800 -30.941400  14.067700  43.842100  36.889100 -78.239200  19.011500  -0.007124   0.002554  14.505700   0.001840   0.001565 -19.422500   4.850540 -13.476400 -16.358100  -0.003426  -0.000624 -11.450700  -0.002187  -0.000130 -28.094400  -1.062800   1.991370 -32.685000  -0.001836   0.003242 -21.768200  -0.001158   0.002922 -28.235400  -1.068160   1.987780 -33.797600   0.001798   0.001786 -22.509200   0.000474  -0.002000 -33.534100  -4.537750   6.808330 -50.701100   0.001622   0.000000 -33.766900   0.000058  -0.001846  15.002400  -4.774570  12.354600  60.698400   4.399300   3.311600 -32.693100 -41.196600  74.843500 -79.187700 -37.378200  -5.075570 -64.625600  47.761700  97.512100 -15.520700  -0.019555  -0.034298 -12.760300   0.000598  -0.018808  20.200800   6.807150  17.857200  17.404000  -0.008366  -0.000768  12.182800  -0.003066   0.010885  26.923700   1.251550   2.459090  26.918200  -0.006072  -0.000766  17.927500  -0.004930  -0.001950  27.542600  -2.811810  -5.380380  30.095100  -0.010971  -0.001084  20.043300  -0.002728  -0.001803  35.502800  -3.531150  -4.938710  53.483600   0.006817  -0.000670  35.620100   0.000525  -0.000588   2.349390  20.654100   4.944560   0.919951   0.003481   4.099200   0.011359  -4.556350   2.654020   0.000000   0.000000  -0.000000   6.255930  18.349900  -5.115220  -2.593500   3.437180  -6.543870   0.005925  -5.967310   0.408472  -0.000000   0.000000  -0.000000
  0.522608  89.486200   2.067340  -5.278370 -16.756200  -6.343920   0.734851  11.644200   0.348720   1.441700  23.291900   0.558431   3.674980  -3.094630   0.198683   6.085320  -6.197940   4.316570  -6.891300  -7.167890   1.033720 -66.428700   9.152680  -7.830510  17.962600 -24.628900 -91.089200  90.847200 -30.879100  13.699200  43.928700  36.771100 -77.984300  19.065700  -0.007382   0.002625  14.532800   0.001873   0.001486 -18.739300   4.577580 -13.213900 -15.764600  -0.003408  -0.000703 -11.035200  -0.002184  -0.000249 -27.893900  -1.135310   2.150260 -31.459500  -0.001880   0.003219 -20.952000  -0.001198   0.002608 -28.152900  -1.146550   2.143800 -33.182000   0.001833   0.001615 -22.099100   0.000466  -0.001995 -33.252400  -4.728820   7.158340 -50.320100   0.001598  -0.000080 -33.513200   0.000075  -0.001866  14.965000  -4.698350  12.267500  60.747400   4.954980   2.015510 -32.003700 -40.799200  76.313900 -78.740900 -36.978300  -3.217200 -63.382800  47.700200  97.064400 -15.127600  -0.013995  -0.023361 -12.563800   0.000608  -0.012877  20.182200   6.820710  17.905500  17.394500  -0.008475  -0.000761  12.176200  -0.003139   0.011134  26.860800   1.300700   2.561650  26.857300  -0.006178  -0.000833  17.887000  -0.005011  -0.001890  27.586300  -2.704100  -5.168370  30.274600  -0.011288  -0.001217  20.162900  -0.002823  -0.001775  35.615600  -3.401590  -4.737660  53.637000   0.006785  -0.000712  35.722300   0.000453  -0.000572   2.336450  20.594000   4.936640   0.918397   0.054844   4.144840   0.018511  -4.603940   2.664080  -0.000000   0.000000   0.000000   6.218330  18.305900  -5.042410  -2.562780   3.426850  -6.597670   0.003669  -5.966980   0.446261  -0.000000   0.000000   0.000000
  0.522543  89.487100   2.083950  -5.285340 -16.701100  -6.411090   0.730578  11.569300   0.361308   1.430140  23.142300   0.586883   3.646530  -3.065140   0.195258   6.038230  -6.140070   4.319200  -6.976830  -7.097110   0.980695 -66.520100   9.115720  -6.566650  17.722000 -24.429200 -91.990500  90.920600 -30.837600  13.402400  44.092800  36.709100 -77.846600  19.111200  -0.007639   0.002696  14.555600   0.001909   0.001410 -18.029200   4.322340 -13.039000 -15.156000  -0.003390  -0.000778 -10.609200  -0.002178  -0.000364 -27.684100  -1.182640   2.254500 -30.222400  -0.001924   0.003106 -20.128100  -0.001231   0.002216 -28.074400  -1.198090   2.246030 -32.642900   0.001867   0.001411 -21.740100   0.000455  -0.001990 -33.005800  -4.881790   7.461770 -49.986800   0.001574  -0.000174 -33.291200   0.000092  -0.001893  14.911500  -4.605240  12.134200  60.828300   5.545840   0.869129 -31.368500 -40.350100  77.721900 -78.287100 -36.566500  -1.284570 -61.771400  47.569300  96.317000 -14.564000  -0.006194  -0.008293 -12.282000   0.000620  -0.004710  20.163500   6.834250  17.953700  17.381800  -0.008584  -0.000756  12.167300  -0.003216   0.011382  26.779300   1.349850   2.666510  26.810400  -0.006288  -0.000896  17.855700  -0.005092  -0.001832  27.639700  -2.562130  -4.885330  30.494200  -0.011593  -0.001342  20.309100  -0.002917  -0.001747  35.734700  -3.225120  -4.476120  53.790400   0.006750  -0.000745  35.824400   0.000383  -0.000562   2.322020  20.526000   4.930550   0.919780   0.106200   4.195980   0.025623  -4.651460   2.688160  -0.000000   0.000000  -0.000000   6.178210  18.256600  -4.959140  -2.537820   3.425120  -6.642660   0.002105  -5.966640   0.485417  -0.000000   0.000000   0.000000
